<svg width="133" height="34" viewBox="0 0 133 34" fill="none" xmlns="http://www.w3.org/2000/svg">
<mask id="mask0_0_3807" style="mask-type:alpha" maskUnits="userSpaceOnUse" x="108" y="7" width="25" height="27">
<path fill-rule="evenodd" clip-rule="evenodd" d="M108.912 7.21283H133.001V33.3143H108.912V7.21283Z" fill="white"/>
</mask>
<g mask="url(#mask0_0_3807)">
<path fill-rule="evenodd" clip-rule="evenodd" d="M120.65 23.6094H133.001V19.0566C133.001 12.526 127.732 7.21283 121.256 7.21283H120.657C114.181 7.21283 108.912 12.526 108.912 19.0566V20.2396V21.1698V21.2917H108.915C108.981 27.932 114.355 33.3143 120.955 33.3143H132.834V28.6788H120.955C116.849 28.6788 113.509 25.3103 113.509 21.1698V20.2396V19.0566C113.509 15.0818 116.715 11.8482 120.657 11.8482H121.256C125.17 11.8482 128.36 15.0372 128.404 18.9738H120.65V23.6094Z" fill="#FFBC00"/>
</g>
<path fill-rule="evenodd" clip-rule="evenodd" d="M94.0285 7.05841H93.4294C86.8689 7.05841 81.5312 12.4408 81.5312 19.0566V20.2396V21.1698V21.2917H81.5343C81.5997 28.0171 87.043 33.4687 93.7276 33.4687H105.607V28.5245H93.7276C89.706 28.5245 86.4343 25.2251 86.4343 21.1698V20.2396V19.0566C86.4343 15.1672 89.5723 12.0026 93.4296 12.0026H94.0285C97.8069 12.0026 100.895 15.039 101.02 18.8196H93.4226V23.7638H105.927V19.0566C105.927 12.4408 100.589 7.05841 94.0285 7.05841Z" fill="#FFBC00"/>
<path fill-rule="evenodd" clip-rule="evenodd" d="M67.5282 7.05843H66.9294C64.3174 7.05843 61.8988 7.91179 59.9343 9.35634V0H55.0312V23.7638H59.9343V19.0566C59.9343 15.1672 63.0723 12.0026 66.9294 12.0026H67.5282C71.3854 12.0026 74.5233 15.1672 74.5233 19.0566V20.2396V21.1698C74.5233 25.2251 71.2516 28.5246 67.2302 28.5246H55.3513V33.4687H67.2302C73.9147 33.4687 79.3579 28.0171 79.4234 21.2917H79.4264V21.1698V20.2396V19.0566C79.4264 12.4408 74.089 7.05843 67.5282 7.05843Z" fill="#FFBC00"/>
<path fill-rule="evenodd" clip-rule="evenodd" d="M19.4923 22.0016C19.4923 25.8912 16.3543 29.0558 12.4972 29.0558H11.8981C8.04105 29.0558 4.90309 25.8912 4.90309 22.0016V7.62299H0V22.0016C0 28.6176 5.33741 34 11.8981 34H12.4972C19.0579 34 24.3953 28.6176 24.3953 22.0016V7.62299H19.4923V22.0016Z" fill="white"/>
<path fill-rule="evenodd" clip-rule="evenodd" d="M46.5548 10.8981C46.5548 14.7877 43.4168 17.9521 39.5597 17.9521H38.9606C35.1035 17.9521 31.9656 14.7877 31.9656 10.8981V7.62286H27.0625V10.8981C27.0625 14.7768 28.8987 18.2294 31.7386 20.4241C28.8987 22.6189 27.0625 26.0717 27.0625 29.9506V33.4426H31.9656V29.9506C31.9656 26.0608 35.1035 22.8962 38.9606 22.8962H39.5597C43.4168 22.8962 46.5548 26.0608 46.5548 29.9506V33.4426H51.4578V29.9506C51.4578 26.0717 49.6217 22.6189 46.7817 20.4241C49.6217 18.2294 51.4578 14.7768 51.4578 10.8981V7.62286H46.5548V10.8981Z" fill="white"/>
</svg>
